<svg width="117" height="24" viewBox="0 0 117 24" fill="none" xmlns="http://www.w3.org/2000/svg">
<path d="M12.0909 6.6875C11.9716 6.27273 11.804 5.90625 11.5881 5.58807C11.3722 5.2642 11.108 4.99148 10.7955 4.76989C10.4886 4.54261 10.1364 4.36932 9.73864 4.25C9.34659 4.13068 8.91193 4.07102 8.43466 4.07102C7.54261 4.07102 6.75852 4.29261 6.08239 4.73579C5.41193 5.17898 4.8892 5.82386 4.5142 6.67045C4.1392 7.51136 3.9517 8.53977 3.9517 9.75568C3.9517 10.9716 4.13636 12.0057 4.50568 12.858C4.875 13.7102 5.39773 14.3608 6.07386 14.8097C6.75 15.2528 7.5483 15.4744 8.46875 15.4744C9.30398 15.4744 10.017 15.3267 10.608 15.0312C11.2045 14.7301 11.6591 14.3068 11.9716 13.7614C12.2898 13.2159 12.4489 12.571 12.4489 11.8267L13.1989 11.9375H8.69886V9.15909H16.0028V11.358C16.0028 12.892 15.679 14.2102 15.0312 15.3125C14.3835 16.4091 13.4915 17.2557 12.3551 17.8523C11.2188 18.4432 9.91761 18.7386 8.4517 18.7386C6.81534 18.7386 5.37784 18.3778 4.1392 17.6562C2.90057 16.929 1.93466 15.8977 1.24148 14.5625C0.553977 13.2216 0.210227 11.6307 0.210227 9.78977C0.210227 8.375 0.414773 7.11364 0.823864 6.00568C1.23864 4.89205 1.81818 3.94886 2.5625 3.17614C3.30682 2.40341 4.1733 1.81534 5.16193 1.41193C6.15057 1.00852 7.22159 0.806818 8.375 0.806818C9.36364 0.806818 10.2841 0.951704 11.1364 1.24148C11.9886 1.52557 12.7443 1.92898 13.4034 2.4517C14.0682 2.97443 14.6108 3.59659 15.0312 4.31818C15.4517 5.03409 15.7216 5.82386 15.8409 6.6875H12.0909ZM22.4396 18.7472C21.6044 18.7472 20.8601 18.6023 20.2067 18.3125C19.5533 18.017 19.0362 17.5824 18.6555 17.0085C18.2805 16.429 18.093 15.7074 18.093 14.8438C18.093 14.1165 18.2266 13.5057 18.4936 13.0114C18.7607 12.517 19.1243 12.1193 19.5845 11.8182C20.0447 11.517 20.5675 11.2898 21.1527 11.1364C21.7436 10.983 22.3629 10.875 23.0107 10.8125C23.772 10.733 24.3857 10.6591 24.8516 10.5909C25.3175 10.517 25.6555 10.4091 25.8658 10.267C26.076 10.125 26.1811 9.91477 26.1811 9.63636V9.58523C26.1811 9.04545 26.0107 8.62784 25.6697 8.33239C25.3345 8.03693 24.8572 7.8892 24.2379 7.8892C23.5845 7.8892 23.0646 8.03409 22.6783 8.32386C22.2919 8.60795 22.0362 8.96591 21.9112 9.39773L18.5533 9.125C18.7237 8.32955 19.0589 7.64205 19.5589 7.0625C20.0589 6.47727 20.7038 6.02841 21.4936 5.71591C22.2891 5.39773 23.2095 5.23864 24.255 5.23864C24.9822 5.23864 25.6783 5.32386 26.343 5.49432C27.0135 5.66477 27.6072 5.92898 28.1243 6.28693C28.647 6.64489 29.0589 7.10511 29.3601 7.66761C29.6612 8.22443 29.8118 8.89205 29.8118 9.67045V18.5H26.3686V16.6847H26.2663C26.0561 17.0938 25.7749 17.4545 25.4226 17.767C25.0703 18.0739 24.647 18.3153 24.1527 18.4915C23.6584 18.6619 23.0874 18.7472 22.4396 18.7472ZM23.4794 16.2415C24.0135 16.2415 24.4851 16.1364 24.8942 15.9261C25.3033 15.7102 25.6243 15.4205 25.8572 15.0568C26.0902 14.6932 26.2067 14.2812 26.2067 13.821V12.4318C26.093 12.5057 25.9368 12.5739 25.7379 12.6364C25.5447 12.6932 25.326 12.7472 25.0817 12.7983C24.8374 12.8437 24.593 12.8864 24.3487 12.9261C24.1044 12.9602 23.8828 12.9915 23.6839 13.0199C23.2578 13.0824 22.8857 13.1818 22.5675 13.3182C22.2493 13.4545 22.0021 13.6392 21.826 13.8722C21.6499 14.0994 21.5618 14.3835 21.5618 14.7244C21.5618 15.2188 21.7408 15.5966 22.0987 15.858C22.4624 16.1136 22.9226 16.2415 23.4794 16.2415ZM32.6286 18.5V5.40909H36.0888V7.71875H36.2422C36.5149 6.9517 36.9695 6.34659 37.6058 5.90341C38.2422 5.46023 39.0036 5.23864 39.8899 5.23864C40.7876 5.23864 41.5518 5.46307 42.1825 5.91193C42.8132 6.35511 43.2337 6.95739 43.4439 7.71875H43.5803C43.8473 6.96875 44.3303 6.36932 45.0291 5.92045C45.7337 5.46591 46.5661 5.23864 47.5263 5.23864C48.7479 5.23864 49.7393 5.62784 50.5007 6.40625C51.2678 7.17898 51.6513 8.27557 51.6513 9.69602V18.5H48.0291V10.4119C48.0291 9.68466 47.8359 9.1392 47.4496 8.77557C47.0632 8.41193 46.5803 8.23011 46.0007 8.23011C45.3416 8.23011 44.8274 8.44034 44.4581 8.8608C44.0888 9.27557 43.9041 9.82386 43.9041 10.5057V18.5H40.3842V10.3352C40.3842 9.69318 40.1996 9.18182 39.8303 8.80114C39.4666 8.42045 38.9865 8.23011 38.3899 8.23011C37.9865 8.23011 37.6229 8.33239 37.299 8.53693C36.9808 8.7358 36.728 9.01705 36.5405 9.38068C36.353 9.73864 36.2592 10.1591 36.2592 10.642V18.5H32.6286ZM60.4851 18.7557C59.1385 18.7557 57.9794 18.483 57.0078 17.9375C56.0419 17.3864 55.2976 16.608 54.7749 15.6023C54.2521 14.5909 53.9908 13.3949 53.9908 12.0142C53.9908 10.6676 54.2521 9.4858 54.7749 8.46875C55.2976 7.4517 56.0334 6.65909 56.9822 6.09091C57.9368 5.52273 59.0561 5.23864 60.3402 5.23864C61.2038 5.23864 62.0078 5.37784 62.7521 5.65625C63.5021 5.92898 64.1555 6.34091 64.7124 6.89205C65.2749 7.44318 65.7124 8.13636 66.0249 8.97159C66.3374 9.80114 66.4936 10.7727 66.4936 11.8864V12.8835H55.4396V10.6335H63.076C63.076 10.1108 62.9624 9.64773 62.7351 9.24432C62.5078 8.84091 62.1925 8.52557 61.7891 8.2983C61.3913 8.06534 60.9283 7.94886 60.3999 7.94886C59.8487 7.94886 59.3601 8.0767 58.9339 8.33239C58.5135 8.58239 58.1839 8.92045 57.9453 9.34659C57.7067 9.76705 57.5845 10.2358 57.5788 10.7528V12.892C57.5788 13.5398 57.6982 14.0994 57.9368 14.571C58.1811 15.0426 58.5249 15.4062 58.968 15.6619C59.4112 15.9176 59.9368 16.0455 60.5447 16.0455C60.9482 16.0455 61.3175 15.9886 61.6527 15.875C61.9879 15.7614 62.2749 15.5909 62.5135 15.3636C62.7521 15.1364 62.9339 14.858 63.0589 14.5284L66.4169 14.75C66.2464 15.5568 65.897 16.2614 65.3686 16.8636C64.8459 17.4602 64.1697 17.9261 63.3402 18.2614C62.5163 18.5909 61.5646 18.7557 60.4851 18.7557ZM78.1506 18.7472C77.3153 18.7472 76.571 18.6023 75.9176 18.3125C75.2642 18.017 74.7472 17.5824 74.3665 17.0085C73.9915 16.429 73.804 15.7074 73.804 14.8438C73.804 14.1165 73.9375 13.5057 74.2045 13.0114C74.4716 12.517 74.8352 12.1193 75.2955 11.8182C75.7557 11.517 76.2784 11.2898 76.8636 11.1364C77.4545 10.983 78.0739 10.875 78.7216 10.8125C79.483 10.733 80.0966 10.6591 80.5625 10.5909C81.0284 10.517 81.3665 10.4091 81.5767 10.267C81.7869 10.125 81.892 9.91477 81.892 9.63636V9.58523C81.892 9.04545 81.7216 8.62784 81.3807 8.33239C81.0455 8.03693 80.5682 7.8892 79.9489 7.8892C79.2955 7.8892 78.7756 8.03409 78.3892 8.32386C78.0028 8.60795 77.7472 8.96591 77.6222 9.39773L74.2642 9.125C74.4347 8.32955 74.7699 7.64205 75.2699 7.0625C75.7699 6.47727 76.4148 6.02841 77.2045 5.71591C78 5.39773 78.9205 5.23864 79.9659 5.23864C80.6932 5.23864 81.3892 5.32386 82.054 5.49432C82.7244 5.66477 83.3182 5.92898 83.8352 6.28693C84.358 6.64489 84.7699 7.10511 85.071 7.66761C85.3722 8.22443 85.5227 8.89205 85.5227 9.67045V18.5H82.0795V16.6847H81.9773C81.767 17.0938 81.4858 17.4545 81.1335 17.767C80.7812 18.0739 80.358 18.3153 79.8636 18.4915C79.3693 18.6619 78.7983 18.7472 78.1506 18.7472ZM79.1903 16.2415C79.7244 16.2415 80.196 16.1364 80.6051 15.9261C81.0142 15.7102 81.3352 15.4205 81.5682 15.0568C81.8011 14.6932 81.9176 14.2812 81.9176 13.821V12.4318C81.804 12.5057 81.6477 12.5739 81.4489 12.6364C81.2557 12.6932 81.0369 12.7472 80.7926 12.7983C80.5483 12.8437 80.304 12.8864 80.0597 12.9261C79.8153 12.9602 79.5938 12.9915 79.3949 13.0199C78.9688 13.0824 78.5966 13.1818 78.2784 13.3182C77.9602 13.4545 77.7131 13.6392 77.5369 13.8722C77.3608 14.0994 77.2727 14.3835 77.2727 14.7244C77.2727 15.2188 77.4517 15.5966 77.8097 15.858C78.1733 16.1136 78.6335 16.2415 79.1903 16.2415ZM88.3395 23.4091V5.40909H91.919V7.60795H92.081C92.2401 7.25568 92.4702 6.89773 92.7713 6.53409C93.0781 6.16477 93.4759 5.85795 93.9645 5.61364C94.4588 5.36364 95.0724 5.23864 95.8054 5.23864C96.7599 5.23864 97.6406 5.48864 98.4474 5.98864C99.2543 6.48295 99.8991 7.23011 100.382 8.23011C100.865 9.22443 101.107 10.4716 101.107 11.9716C101.107 13.4318 100.871 14.6648 100.399 15.6705C99.9332 16.6705 99.2969 17.429 98.4901 17.946C97.6889 18.4574 96.7912 18.7131 95.7969 18.7131C95.0923 18.7131 94.4929 18.5966 93.9986 18.3636C93.5099 18.1307 93.1094 17.8381 92.7969 17.4858C92.4844 17.1278 92.2457 16.767 92.081 16.4034H91.9702V23.4091H88.3395ZM91.8935 11.9545C91.8935 12.733 92.0014 13.4119 92.2173 13.9915C92.4332 14.571 92.7457 15.0227 93.1548 15.3466C93.5639 15.6648 94.0611 15.8239 94.6463 15.8239C95.2372 15.8239 95.7372 15.6619 96.1463 15.3381C96.5554 15.0085 96.8651 14.554 97.0753 13.9744C97.2912 13.3892 97.3991 12.7159 97.3991 11.9545C97.3991 11.1989 97.294 10.5341 97.0838 9.96023C96.8736 9.38636 96.5639 8.9375 96.1548 8.61364C95.7457 8.28977 95.2429 8.12784 94.6463 8.12784C94.0554 8.12784 93.5554 8.28409 93.1463 8.59659C92.7429 8.90909 92.4332 9.35227 92.2173 9.92614C92.0014 10.5 91.8935 11.1761 91.8935 11.9545ZM103.527 23.4091V5.40909H107.107V7.60795H107.268C107.428 7.25568 107.658 6.89773 107.959 6.53409C108.266 6.16477 108.663 5.85795 109.152 5.61364C109.646 5.36364 110.26 5.23864 110.993 5.23864C111.947 5.23864 112.828 5.48864 113.635 5.98864C114.442 6.48295 115.087 7.23011 115.57 8.23011C116.053 9.22443 116.294 10.4716 116.294 11.9716C116.294 13.4318 116.058 14.6648 115.587 15.6705C115.121 16.6705 114.484 17.429 113.678 17.946C112.876 18.4574 111.979 18.7131 110.984 18.7131C110.28 18.7131 109.68 18.5966 109.186 18.3636C108.697 18.1307 108.297 17.8381 107.984 17.4858C107.672 17.1278 107.433 16.767 107.268 16.4034H107.158V23.4091H103.527ZM107.081 11.9545C107.081 12.733 107.189 13.4119 107.405 13.9915C107.621 14.571 107.933 15.0227 108.342 15.3466C108.751 15.6648 109.249 15.8239 109.834 15.8239C110.425 15.8239 110.925 15.6619 111.334 15.3381C111.743 15.0085 112.053 14.554 112.263 13.9744C112.479 13.3892 112.587 12.7159 112.587 11.9545C112.587 11.1989 112.482 10.5341 112.271 9.96023C112.061 9.38636 111.751 8.9375 111.342 8.61364C110.933 8.28977 110.43 8.12784 109.834 8.12784C109.243 8.12784 108.743 8.28409 108.334 8.59659C107.93 8.90909 107.621 9.35227 107.405 9.92614C107.189 10.5 107.081 11.1761 107.081 11.9545Z" fill="black"/>
</svg>
