<svg width="32" height="32" viewBox="0 0 32 32" fill="none" xmlns="http://www.w3.org/2000/svg">
<rect x="1" y="1" width="30" height="30" rx="15" fill="white"/>
<rect x="1" y="1" width="30" height="30" rx="15" stroke="#1C1C1C" stroke-width="1.5"/>
<path d="M19.9708 21.2566L11.5001 16.5" stroke="#1C1C1C" stroke-width="1.5" stroke-linecap="round"/>
<path d="M19.9707 10.5002L11.5 15.2568" stroke="#1C1C1C" stroke-width="1.5" stroke-linecap="round"/>
<path d="M12.6667 16C12.6667 17.1966 11.6966 18.1667 10.5 18.1667C9.3034 18.1667 8.33335 17.1966 8.33335 16C8.33335 14.8034 9.3034 13.8333 10.5 13.8333C11.6966 13.8333 12.6667 14.8034 12.6667 16Z" fill="#1C1C1C" stroke="#1C1C1C" stroke-width="0.666667"/>
<path d="M22.6667 10.5C22.6667 11.6966 21.6966 12.6667 20.5 12.6667C19.3034 12.6667 18.3334 11.6966 18.3334 10.5C18.3334 9.30338 19.3034 8.33333 20.5 8.33333C21.6966 8.33333 22.6667 9.30338 22.6667 10.5Z" fill="#1C1C1C" stroke="#1C1C1C" stroke-width="0.666667"/>
<path d="M22.6667 21.5C22.6667 22.6966 21.6966 23.6667 20.5 23.6667C19.3034 23.6667 18.3334 22.6966 18.3334 21.5C18.3334 20.3034 19.3034 19.3333 20.5 19.3333C21.6966 19.3333 22.6667 20.3034 22.6667 21.5Z" fill="#1C1C1C" stroke="#1C1C1C" stroke-width="0.666667"/>
</svg>
