<svg width="133" height="33" viewBox="0 0 133 33" fill="none" xmlns="http://www.w3.org/2000/svg">
<path d="M3.05444 11.1173V4.81341C3.05444 4.70607 3.16685 4.63581 3.26334 4.68284L11.7695 8.82961L20.3786 4.11767C20.4754 4.06469 20.5935 4.13474 20.5935 4.24508V14.8611C20.5935 14.9399 20.5307 15.0044 20.4519 15.0063L3.18198 15.4354C3.10902 15.4372 3.04894 15.4895 3.04237 15.5622C2.68156 19.5529 4.54423 28.8039 11.7576 29.998C11.7654 29.9993 11.7733 30 11.7812 30C14.6859 29.9929 18.9109 27.3463 20.5935 19.8324" stroke="#37583B" stroke-width="3.25"/>
<path d="M44.3068 10.9872C47.1319 10.9872 48.7129 12.9311 48.7129 15.7821V23.8168H45.525V16.4819C45.525 14.6935 44.6437 13.7086 43.1923 13.7086C41.5853 13.7086 40.5227 14.849 40.5227 16.6115V23.8168H37.3606V16.4819C37.3606 14.7194 36.4794 13.7086 35.002 13.7086C33.421 13.7086 32.3583 14.849 32.3583 16.6115V23.8168H29.1963V11.1168H32.2288L32.3324 12.957C33.0841 11.7906 34.3282 10.9872 36.0906 10.9872C38.1382 10.9872 39.5378 12.0239 40.1598 13.6049C40.8337 12.1017 42.2074 10.9872 44.3068 10.9872Z" fill="#37583B"/>
<path d="M62.6013 21.1472L62.8086 23.7132C62.3162 23.8428 61.746 23.9464 61.098 23.9464C59.7243 23.9464 58.7135 23.2466 58.3506 21.8729C57.9359 22.6505 56.8214 23.9464 54.1 23.9464C51.2749 23.9464 49.7975 22.5468 49.7975 20.4993C49.7975 17.4927 52.7782 16.5078 56.2512 16.5078H58.221V15.8599C58.221 14.3825 57.3398 13.4494 55.5774 13.4494C54.0741 13.4494 53.141 14.1752 53.0114 15.4192H50.1085C50.3159 12.5682 52.519 10.9872 55.7588 10.9872C59.3615 10.9872 61.3053 12.8792 61.3053 16.0413V20.4993C61.3053 20.9917 61.5645 21.2768 61.9533 21.2768C62.1607 21.2768 62.3162 21.2509 62.6013 21.1472ZM54.9294 21.5878C57.0029 21.5878 58.221 20.266 58.221 19.1774V18.348H56.0957C54.0222 18.348 52.8818 18.9701 52.8818 20.1623C52.8818 21.0695 53.5298 21.5878 54.9294 21.5878Z" fill="#37583B"/>
<path d="M67.2069 6.99572C67.2069 8.18798 66.2998 9.01737 65.1335 9.01737C63.9671 9.01737 63.06 8.18798 63.06 6.99572C63.06 5.85531 63.9671 5 65.1335 5C66.2998 5 67.2069 5.85531 67.2069 6.99572ZM63.5265 23.8168V11.1168H66.6886V23.8168H63.5265Z" fill="#37583B"/>
<path d="M73.0611 21.1472L73.2685 23.7132C72.776 23.8428 72.2318 23.9464 71.5319 23.9464C69.6399 23.9464 68.6291 22.7801 68.6291 20.7585V5.4147H71.7652V20.4993C71.7652 20.9917 72.0503 21.2768 72.4391 21.2768C72.6465 21.2768 72.776 21.2509 73.0611 21.1472Z" fill="#37583B"/>
<path d="M79.6591 23.9464C75.8232 23.9464 73.4905 21.2768 73.4905 17.5186C73.4905 13.6827 76.0823 10.9872 79.7369 10.9872C83.3654 10.9872 85.2316 13.1384 85.5426 15.9894H82.4324C82.1991 14.6676 81.4216 13.6049 79.8146 13.6049C77.9485 13.6049 76.7044 15.0305 76.7044 17.4668C76.7044 19.9031 77.8707 21.3287 79.7887 21.3287C81.4734 21.3287 82.1991 20.2919 82.4324 19.0219H85.5426C85.2057 21.7952 83.3136 23.9464 79.6591 23.9464Z" fill="#37583B"/>
<path d="M93.8131 10.9872C96.6901 10.9872 98.3229 12.9829 98.3229 15.6266V23.8168H95.1349V16.4041C95.1349 14.7454 94.3055 13.7086 92.7245 13.7086C90.988 13.7086 89.8735 14.849 89.8735 16.6115V23.8168H86.7114V5.4147H89.8217V12.9829C90.5733 11.8166 91.8692 10.9872 93.8131 10.9872Z" fill="#37583B"/>
<path d="M111.701 17.5446V18.1925H102.604C102.837 20.266 104.055 21.4323 105.869 21.4323C107.761 21.4323 108.461 20.4474 108.669 19.6699H111.649C111.209 21.8989 109.446 23.9464 105.74 23.9464C101.852 23.9464 99.4934 21.2509 99.4934 17.4927C99.4934 13.6568 102.137 10.9872 105.766 10.9872C109.524 10.9872 111.701 13.579 111.701 17.5446ZM105.792 13.4235C104.211 13.4235 102.992 14.3825 102.655 16.2486H108.694C108.435 14.3047 107.373 13.4235 105.792 13.4235Z" fill="#37583B"/>
<path d="M121.649 23.8168L117.994 18.6072L116.18 20.6029V23.8168H113.018V5.4147H116.18V16.6115L120.975 11.1168H124.759L120.016 16.3782L125.252 23.8168H121.649Z" fill="#37583B"/>
<path d="M131.813 10.9872C132.124 10.9872 132.435 11.039 132.591 11.0649L132.565 14.1752C132.383 14.0974 132.176 14.0456 131.684 14.0456C130.129 14.0456 128.807 15.1082 128.599 17.0262V23.8168H125.437V11.1168H128.47L128.522 13.1643C129.144 11.8943 130.18 10.9872 131.813 10.9872Z" fill="#37583B"/>
</svg>
