<svg width="20" height="20" viewBox="0 0 20 20" fill="none" xmlns="http://www.w3.org/2000/svg">
<g id="game icons ">
<path id="Star 18" d="M8.6762 2.79549C9.21287 1.73484 10.7871 1.73484 11.3238 2.79549C11.6885 3.51632 12.6042 3.8019 13.3407 3.42452C14.4243 2.86923 15.6979 3.75745 15.4826 4.91833C15.3363 5.70728 15.9022 6.45495 16.7291 6.56517C17.9458 6.72734 18.4323 8.16451 17.5472 8.9822C16.9457 9.53791 16.9457 10.4621 17.5472 11.0178C18.4323 11.8355 17.9458 13.2727 16.7291 13.4348C15.9022 13.545 15.3363 14.2927 15.4826 15.0817C15.6979 16.2425 14.4243 17.1308 13.3407 16.5755C12.6042 16.1981 11.6885 16.4837 11.3238 17.2045C10.7871 18.2652 9.21287 18.2652 8.6762 17.2045C8.31148 16.4837 7.39581 16.1981 6.65935 16.5755C5.5757 17.1308 4.30209 16.2425 4.5174 15.0817C4.66373 14.2927 4.09782 13.545 3.27092 13.4348C2.0542 13.2727 1.56772 11.8355 2.45277 11.0178C3.05425 10.4621 3.05425 9.53791 2.45276 8.9822C1.56772 8.16451 2.0542 6.72734 3.27092 6.56517C4.09782 6.45495 4.66373 5.70728 4.5174 4.91833C4.30209 3.75745 5.5757 2.86923 6.65935 3.42452C7.39581 3.8019 8.31148 3.51632 8.6762 2.79549Z" stroke="#2D2D2D" stroke-width="1.5"/>
<circle id="Ellipse 416" cx="9.99967" cy="10.0002" r="2.66667" stroke="#2D2D2D" stroke-width="1.33333"/>
</g>
</svg>
